HIERARCHY
ROOT hip
{
  OFFSET 0 0 0
  CHANNELS 6 Xposition Yposition Zposition Zrotation Yrotation Xrotation
  JOINT abdomen
  {
    OFFSET 0 20.6881 -0.73152
    CHANNELS 3 Zrotation Xrotation Yrotation
    JOINT chest
    {
      OFFSET 0 11.7043 -0.48768
      CHANNELS 3 Zrotation Xrotation Yrotation
      JOINT neck
      {
        OFFSET 0 22.1894 -2.19456
        CHANNELS 3 Zrotation Xrotation Yrotation
        JOINT head
        {
          OFFSET -0.24384 7.07133 1.2192
          CHANNELS 3 Zrotation Xrotation Yrotation
          JOINT leftEye
          {
            OFFSET 4.14528 8.04674 8.04672
            CHANNELS 3 Zrotation Xrotation Yrotation
            End Site
            {
              OFFSET 1 0 0
            }
          }
          JOINT rightEye
          {
            OFFSET -3.6576 8.04674 8.04672
            CHANNELS 3 Zrotation Xrotation Yrotation
            End Site
            {
              OFFSET 1 0 0
            }
          }
        }
      }
      JOINT rCollar
      {
        OFFSET -2.68224 19.2634 -4.8768
        CHANNELS 3 Zrotation Xrotation Yrotation
        JOINT rShldr
        {
          OFFSET -8.77824 -1.95073 1.46304
          CHANNELS 3 Zrotation Xrotation Yrotation
          JOINT rForeArm
          {
            OFFSET -28.1742 -1.7115 0.48768
            CHANNELS 3 Zrotation Xrotation Yrotation
            JOINT rHand
            {
              OFFSET -22.5879 0.773209 7.07136
              CHANNELS 3 Zrotation Xrotation Yrotation
              JOINT rThumb1
              {
                OFFSET -1.2192 -0.487915 3.41376
                CHANNELS 3 Zrotation Xrotation Yrotation
                JOINT rThumb2
                {
                  OFFSET -3.37035 -0.52449 3.41376
                  CHANNELS 3 Zrotation Xrotation Yrotation
                  End Site
                  {
                    OFFSET -1.78271 -1.18214 1.43049
                  }
                }
              }
              JOINT rIndex1
              {
                OFFSET -7.75947 0.938293 5.60832
                CHANNELS 3 Zrotation Xrotation Yrotation
                JOINT rIndex2
                {
                  OFFSET -2.54057 -0.884171 1.56538
                  CHANNELS 3 Zrotation Xrotation Yrotation
                  End Site
                  {
                    OFFSET -1.62519 -0.234802 1.16502
                  }
                }
              }
              JOINT rMid1
              {
                OFFSET -8.24714 1.18213 3.41376
                CHANNELS 3 Zrotation Xrotation Yrotation
                JOINT rMid2
                {
                  OFFSET -3.10165 -0.590103 1.0647
                  CHANNELS 3 Zrotation Xrotation Yrotation
                  End Site
                  {
                    OFFSET -2.48547 -0.328903 0.83742
                  }
                }
              }
              JOINT rRing1
              {
                OFFSET -8.82822 0.546677 1.51678
                CHANNELS 3 Zrotation Xrotation Yrotation
                JOINT rRing2
                {
                  OFFSET -2.60934 -0.819778 -0.0198488
                  CHANNELS 3 Zrotation Xrotation Yrotation
                  End Site
                  {
                    OFFSET -2.33842 -0.294052 0.168128
                  }
                }
              }
              JOINT rPinky1
              {
                OFFSET -8.27202 -0.0477905 -0.4584
                CHANNELS 3 Zrotation Xrotation Yrotation
                JOINT rPinky2
                {
                  OFFSET -1.82734 -0.647385 -0.700984
                  CHANNELS 3 Zrotation Xrotation Yrotation
                  End Site
                  {
                    OFFSET -1.69225 -0.51767 -0.607171
                  }
                }
              }
            }
          }
        }
      }
      JOINT lCollar
      {
        OFFSET 2.68224 19.2634 -4.8768
        CHANNELS 3 Zrotation Xrotation Yrotation
        JOINT lShldr
        {
          OFFSET 8.77824 -1.95073 1.46304
          CHANNELS 3 Zrotation Xrotation Yrotation
          JOINT lForeArm
          {
            OFFSET 28.1742 -1.7115 0.48768
            CHANNELS 3 Zrotation Xrotation Yrotation
            JOINT lHand
            {
              OFFSET 22.5879 0.773209 7.07136
              CHANNELS 3 Zrotation Xrotation Yrotation
              JOINT lThumb1
              {
                OFFSET 1.2192 -0.487915 3.41376
                CHANNELS 3 Zrotation Xrotation Yrotation
                JOINT lThumb2
                {
                  OFFSET 3.37035 -0.52449 3.41376
                  CHANNELS 3 Zrotation Xrotation Yrotation
                  End Site
                  {
                    OFFSET 1.78271 -1.18214 1.43049
                  }
                }
              }
              JOINT lIndex1
              {
                OFFSET 7.75947 0.938293 5.60832
                CHANNELS 3 Zrotation Xrotation Yrotation
                JOINT lIndex2
                {
                  OFFSET 2.54057 -0.884171 1.56538
                  CHANNELS 3 Zrotation Xrotation Yrotation
                  End Site
                  {
                    OFFSET 1.62519 -0.234802 1.16502
                  }
                }
              }
              JOINT lMid1
              {
                OFFSET 8.24714 1.18213 3.41376
                CHANNELS 3 Zrotation Xrotation Yrotation
                JOINT lMid2
                {
                  OFFSET 3.10165 -0.590103 1.0647
                  CHANNELS 3 Zrotation Xrotation Yrotation
                  End Site
                  {
                    OFFSET 2.48547 -0.328903 0.83742
                  }
                }
              }
              JOINT lRing1
              {
                OFFSET 8.82822 0.546677 1.51678
                CHANNELS 3 Zrotation Xrotation Yrotation
                JOINT lRing2
                {
                  OFFSET 2.60934 -0.819778 -0.0198488
                  CHANNELS 3 Zrotation Xrotation Yrotation
                  End Site
                  {
                    OFFSET 2.33842 -0.294052 0.168128
                  }
                }
              }
              JOINT lPinky1
              {
                OFFSET 8.27202 -0.0477905 -0.4584
                CHANNELS 3 Zrotation Xrotation Yrotation
                JOINT lPinky2
                {
                  OFFSET 1.82734 -0.647385 -0.700984
                  CHANNELS 3 Zrotation Xrotation Yrotation
                  End Site
                  {
                    OFFSET 1.69225 -0.51767 -0.607171
                  }
                }
              }
            }
          }
        }
      }
    }
  }
  JOINT rButtock
  {
    OFFSET -8.77824 4.35084 1.2192
    CHANNELS 3 Zrotation Xrotation Yrotation
    JOINT rThigh
    {
      OFFSET 0 -1.70687 -2.19456
      CHANNELS 3 Zrotation Xrotation Yrotation
      JOINT rShin
      {
        OFFSET 0 -36.8199 0.73152
        CHANNELS 3 Zrotation Xrotation Yrotation
        JOINT rFoot
        {
          OFFSET 0.73152 -45.1104 -5.12064
          CHANNELS 3 Zrotation Xrotation Yrotation
          End Site
          {
            OFFSET -1.1221 -3.69964 12.103
          }
        }
      }
    }
  }
  JOINT lButtock
  {
    OFFSET 8.77824 4.35084 1.2192
    CHANNELS 3 Zrotation Xrotation Yrotation
    JOINT lThigh
    {
      OFFSET 0 -1.70687 -2.19456
      CHANNELS 3 Zrotation Xrotation Yrotation
      JOINT lShin
      {
        OFFSET 0 -36.8199 0.73152
        CHANNELS 3 Zrotation Xrotation Yrotation
        JOINT lFoot
        {
          OFFSET -0.73152 -45.1104 -5.12064
          CHANNELS 3 Zrotation Xrotation Yrotation
          End Site
          {
            OFFSET 1.1221 -3.69964 12.103
          }
        }
      }
    }
  }
}
MOTION
Frames:	4
Frame Time:	0.03333
0.0 0.0 0.0 0.0 0.0 0.0 0.0 0.0 0.0 0.0 0.0 0.0 0.0 0.0 0.0 0.0 0.0 0.0 0.0 0.0 0.0 0.0 0.0 0.0 0.0 0.0 0.0 0.0 0.0 0.0 0.0 0.0 0.0 0.0 0.0 0.0 0.0 0.0 0.0 0.0 0.0 0.0 0.0 0.0 0.0 0.0 0.0 0.0 0.0 0.0 0.0 0.0 0.0 0.0 0.0 0.0 0.0 0.0 0.0 0.0 0.0 0.0 0.0 0.0 0.0 0.0 0.0 0.0 0.0 0.0 0.0 0.0 0.0 0.0 0.0 0.0 0.0 0.0 0.0 0.0 0.0 0.0 0.0 0.0 0.0 0.0 0.0 0.0 0.0 0.0 0.0 0.0 0.0 0.0 0.0 0.0 0.0 0.0 0.0 0.0 0.0 0.0 0.0 0.0 0.0 0.0 0.0 0.0 0.0 0.0 0.0 0.0 0.0 0.0 0.0 0.0 0.0 0.0 0.0 0.0 0.0 0.0 0.0 0.0 0.0 0.0 0.0 0.0 0.0 0.0 0.0 0.0
-0.42519999999999997 75.461 -0.3216 4.771404 65.450866 2.566576 -8.035496 2.093061 -180.0 2.741125 4.522923 -71.60945 -6.309894 -13.018231 -91.931022 -51.912854 4.629726 -85.845397 152.2304 4.200445 -16.877057 -165.749061 -0.916386 -7.320798 59.361145 37.854493 38.776594 93.89394 84.430967 -77.507243 -117.027345 -65.782574 70.228931 -16.947224 7.532636 -52.632489 -18.116548 -10.613642 -60.905651 -91.303643 -21.691853 66.420961 140.010636 -43.413655 -43.431262 177.725656 -26.260887 -17.528651 159.979805 16.352382 -138.471036 147.482837 -61.669384 -112.939405 89.679582 -13.785027 -74.908531 -0.244366 31.304304 140.576315 -166.02984 -0.400067 -12.629908 76.711097 65.190529 96.281291 -69.409673 25.260564 -18.431352 -21.44501 51.878168 10.166533 2.807655 14.864201 -170.255823 -135.567547 -9.811637 -103.542035 -175.032713 4.874935 -160.548255 -76.556701 61.015738 -93.841335 -77.851254 -3.243959 135.222794 37.578668 -85.578049 149.897262 -178.83542 70.610607 -1.750022 -34.318794 -81.902595 150.627794 -100.857291 -1.150745 -23.372326 -48.861232 -17.186496 162.033645 41.741345 56.371809 166.689103 90.362131 -62.83822 70.167184 -25.521385 6.214436 -86.47001 6.352764 20.198113 180.0 8.531937 -3.488195 86.492835 -78.359289 2.995508 109.100464 8.096954 -63.176051 0.0 -23.542458 62.130221 -153.763183 5.446128 1.78476 102.178985 -73.951826 -9.925068 86.622803
-0.19319999999999998 66.55499999999999 1.8880000000000001 -168.679607 -36.457046 -167.402254 15.77654 -25.887556 96.227247 -0.406341 15.159234 -46.704205 17.083479 -12.11493 9.697235 -15.40404 -1.754829 -32.886248 -16.092566 -7.459777 49.514002 9.245346 1.462473 17.940244 49.164627 26.538224 -43.687645 86.859372 -61.347472 92.879199 72.582014 36.759028 53.146644 -55.449039 68.413548 20.528835 -169.768599 -2.212457 94.422112 -4.494433 30.021827 -79.192779 -70.554712 -86.411492 -109.031587 103.508256 21.177143 -73.193007 22.391538 -77.911209 51.217353 -79.567506 -26.014356 -153.004993 81.661197 2.798754 11.345102 120.891812 -59.829774 149.550723 -44.954652 2.189355 141.295651 -3.313422 17.927577 161.232176 139.104704 16.367732 -116.437888 -0.659414 14.017962 1.51365 -1.965103 18.077602 98.380348 162.388109 19.54151 -140.406526 77.17821 68.588869 -51.73715 140.075421 -6.875229 -28.139154 89.529734 -54.781787 -159.384401 176.215982 -83.329632 -25.44678 30.124307 40.557597 -60.332786 -78.710512 -9.725741 12.523983 168.100961 23.291315 134.520044 -61.887201 33.726864 87.074859 -95.746752 46.726797 55.45834 -73.386712 48.166818 100.154777 45.253155 65.503177 75.122393 -101.031686 18.590362 -180.0 -22.325946 -7.280172 8.62904 -20.444525 -0.029842 95.274295 -27.368189 5.271369 -47.837027 55.429426 -0.776706 -88.361417 -15.208689 -15.818036 107.417998 -26.889626 28.11542 39.76179
0.7528 63.9536 4.2924999999999995 -166.183609 -31.203802 -169.781565 23.399354 -22.91539 10.502329 -16.248564 -7.6912 4.036693 15.712521 7.143105 54.851626 -4.178438 6.887361 -27.08093 -165.440945 6.287411 46.531645 30.571591 11.986982 42.028626 -155.27161 -5.424957 164.978165 40.941327 72.083199 -47.332789 168.372819 67.714734 -69.286776 -8.481636 1.580895 -14.987739 -11.769043 4.556111 6.263398 61.868521 -23.437432 5.795439 -168.742169 -2.472856 160.621729 138.894261 -9.04935 -161.435843 -162.640466 5.11406 134.915724 -20.187958 -0.607814 -9.512129 -2.300871 -10.18489 54.673945 -82.446751 5.471041 -100.387913 -51.664144 29.371935 129.081087 -60.793478 54.141476 179.856244 -29.268149 -88.517399 -12.84793 149.888508 20.690861 -166.107253 14.539829 -60.73596 -46.147876 1.554082 -13.357113 1.410145 -97.48004 -54.447429 -34.103923 177.9073 -35.165878 -94.168187 132.709519 30.094746 -113.478033 31.495671 -84.934118 103.869008 -17.240095 28.703438 -22.651115 -56.550747 49.130106 118.792792 136.295081 -5.887607 171.379272 82.858834 -1.883932 -169.582978 61.621951 9.043484 53.729003 45.658934 40.678873 -124.801474 134.448035 81.900559 -0.0 -137.257118 26.430878 79.904759 17.327889 -38.329778 -73.997543 12.031959 -8.333218 -76.705511 40.243956 3.123023 -0.0 -12.54907 -45.32819 -180.0 35.395277 -48.980819 62.973693 87.05899 1.283674 -176.116197
